<mxfile host="app.diagrams.net" agent="Mozilla/5.0 (Windows NT 10.0; Win64; x64) AppleWebKit/537.36 (KHTML, like Gecko) Chrome/131.0.0.0 Safari/537.36" version="25.0.3">
  <diagram name="Page-1" id="aebvAJJ-pmm3XplQpBE-">
    <mxGraphModel dx="808" dy="464" grid="1" gridSize="10" guides="1" tooltips="1" connect="1" arrows="1" fold="1" page="1" pageScale="1" pageWidth="850" pageHeight="1100" math="0" shadow="0">
      <root>
        <mxCell id="0" />
        <mxCell id="1" parent="0" />
        <mxCell id="eZifbYopSV_gOOx9Nw91-69" value="Koordinator" style="swimlane;whiteSpace=wrap;html=1;" vertex="1" parent="1">
          <mxGeometry x="210" y="140" width="200" height="460" as="geometry" />
        </mxCell>
        <mxCell id="eZifbYopSV_gOOx9Nw91-70" value="&lt;font style=&quot;font-size: 9px;&quot;&gt;start&lt;/font&gt;" style="rounded=0;orthogonalLoop=1;jettySize=auto;html=1;" edge="1" parent="eZifbYopSV_gOOx9Nw91-69" source="eZifbYopSV_gOOx9Nw91-71" target="eZifbYopSV_gOOx9Nw91-72">
          <mxGeometry relative="1" as="geometry" />
        </mxCell>
        <mxCell id="eZifbYopSV_gOOx9Nw91-71" value="" style="ellipse;whiteSpace=wrap;html=1;aspect=fixed;" vertex="1" parent="eZifbYopSV_gOOx9Nw91-69">
          <mxGeometry x="90" y="30" width="20" height="20" as="geometry" />
        </mxCell>
        <mxCell id="eZifbYopSV_gOOx9Nw91-72" value="Membuka Fitur Kuota Dosen Pembimbing Pada SIdebar" style="rounded=1;whiteSpace=wrap;html=1;fontSize=8;" vertex="1" parent="eZifbYopSV_gOOx9Nw91-69">
          <mxGeometry x="45" y="80" width="110" height="40" as="geometry" />
        </mxCell>
        <mxCell id="eZifbYopSV_gOOx9Nw91-74" value="Update Jumlah alokasi Kuota Mahasiswa setiap Dosbing" style="rounded=1;whiteSpace=wrap;html=1;fontSize=8;" vertex="1" parent="eZifbYopSV_gOOx9Nw91-69">
          <mxGeometry x="45" y="160" width="110" height="30" as="geometry" />
        </mxCell>
        <mxCell id="eZifbYopSV_gOOx9Nw91-114" style="edgeStyle=orthogonalEdgeStyle;rounded=0;orthogonalLoop=1;jettySize=auto;html=1;fillColor=#60a917;strokeColor=#33FF33;" edge="1" parent="eZifbYopSV_gOOx9Nw91-69" source="eZifbYopSV_gOOx9Nw91-76">
          <mxGeometry relative="1" as="geometry">
            <mxPoint x="370" y="280" as="targetPoint" />
            <Array as="points">
              <mxPoint x="100" y="280" />
            </Array>
          </mxGeometry>
        </mxCell>
        <mxCell id="eZifbYopSV_gOOx9Nw91-116" value="Auto Update" style="edgeLabel;html=1;align=center;verticalAlign=middle;resizable=0;points=[];" vertex="1" connectable="0" parent="eZifbYopSV_gOOx9Nw91-114">
          <mxGeometry x="0.4706" y="-3" relative="1" as="geometry">
            <mxPoint as="offset" />
          </mxGeometry>
        </mxCell>
        <mxCell id="eZifbYopSV_gOOx9Nw91-76" value="Update Jumlah Lulusan setiap Dosbing" style="rounded=1;whiteSpace=wrap;html=1;fontSize=8;" vertex="1" parent="eZifbYopSV_gOOx9Nw91-69">
          <mxGeometry x="45" y="230" width="110" height="30" as="geometry" />
        </mxCell>
        <mxCell id="eZifbYopSV_gOOx9Nw91-111" style="edgeStyle=orthogonalEdgeStyle;rounded=0;orthogonalLoop=1;jettySize=auto;html=1;fillColor=#008a00;strokeColor=#00ff00;" edge="1" parent="eZifbYopSV_gOOx9Nw91-69" source="eZifbYopSV_gOOx9Nw91-78">
          <mxGeometry relative="1" as="geometry">
            <mxPoint x="370" y="360" as="targetPoint" />
            <Array as="points">
              <mxPoint x="100" y="360" />
            </Array>
          </mxGeometry>
        </mxCell>
        <mxCell id="eZifbYopSV_gOOx9Nw91-117" value="Auto Update" style="edgeLabel;html=1;align=center;verticalAlign=middle;resizable=0;points=[];" vertex="1" connectable="0" parent="eZifbYopSV_gOOx9Nw91-111">
          <mxGeometry x="0.3036" relative="1" as="geometry">
            <mxPoint as="offset" />
          </mxGeometry>
        </mxCell>
        <mxCell id="eZifbYopSV_gOOx9Nw91-78" value="Update Jumlah Lulusan Mahasiswa Saat ini setiap Dosbing" style="rounded=1;whiteSpace=wrap;html=1;fontSize=8;" vertex="1" parent="eZifbYopSV_gOOx9Nw91-69">
          <mxGeometry x="45" y="300" width="110" height="30" as="geometry" />
        </mxCell>
        <mxCell id="eZifbYopSV_gOOx9Nw91-100" value="Update Jumlah Kuota Mahasiswa setiap Dosbing" style="rounded=1;whiteSpace=wrap;html=1;fontSize=8;" vertex="1" parent="eZifbYopSV_gOOx9Nw91-69">
          <mxGeometry x="45" y="390" width="110" height="30" as="geometry" />
        </mxCell>
        <mxCell id="eZifbYopSV_gOOx9Nw91-80" value="Sistem" style="swimlane;whiteSpace=wrap;html=1;" vertex="1" parent="1">
          <mxGeometry x="410" y="140" width="200" height="460" as="geometry" />
        </mxCell>
        <mxCell id="eZifbYopSV_gOOx9Nw91-81" value="&lt;font style=&quot;font-size: 8px;&quot;&gt;end&lt;/font&gt;" style="edgeStyle=orthogonalEdgeStyle;rounded=0;orthogonalLoop=1;jettySize=auto;html=1;entryX=0.5;entryY=1;entryDx=0;entryDy=0;" edge="1" parent="eZifbYopSV_gOOx9Nw91-80" source="eZifbYopSV_gOOx9Nw91-82" target="eZifbYopSV_gOOx9Nw91-87">
          <mxGeometry relative="1" as="geometry" />
        </mxCell>
        <mxCell id="eZifbYopSV_gOOx9Nw91-82" value="&amp;nbsp;Seluruh Halaman Dari Fitur Kuota Dosen Pembimbing" style="rounded=1;whiteSpace=wrap;html=1;fontSize=8;" vertex="1" parent="eZifbYopSV_gOOx9Nw91-80">
          <mxGeometry x="40" y="80" width="110" height="40" as="geometry" />
        </mxCell>
        <mxCell id="eZifbYopSV_gOOx9Nw91-115" style="edgeStyle=orthogonalEdgeStyle;rounded=0;orthogonalLoop=1;jettySize=auto;html=1;entryX=0.75;entryY=1;entryDx=0;entryDy=0;" edge="1" parent="eZifbYopSV_gOOx9Nw91-80" source="eZifbYopSV_gOOx9Nw91-83" target="eZifbYopSV_gOOx9Nw91-82">
          <mxGeometry relative="1" as="geometry">
            <Array as="points">
              <mxPoint x="85" y="170" />
              <mxPoint x="123" y="170" />
            </Array>
          </mxGeometry>
        </mxCell>
        <mxCell id="eZifbYopSV_gOOx9Nw91-83" value="Update" style="rounded=1;whiteSpace=wrap;html=1;fontSize=8;" vertex="1" parent="eZifbYopSV_gOOx9Nw91-80">
          <mxGeometry x="30" y="190" width="110" height="40" as="geometry" />
        </mxCell>
        <mxCell id="eZifbYopSV_gOOx9Nw91-87" value="" style="ellipse;whiteSpace=wrap;html=1;aspect=fixed;" vertex="1" parent="eZifbYopSV_gOOx9Nw91-80">
          <mxGeometry x="85" y="30" width="20" height="20" as="geometry" />
        </mxCell>
        <mxCell id="eZifbYopSV_gOOx9Nw91-91" value="&lt;b&gt;Activity Diagram Kuota Dosen Pembimbing&lt;/b&gt;" style="text;html=1;align=center;verticalAlign=middle;whiteSpace=wrap;rounded=0;" vertex="1" parent="1">
          <mxGeometry x="280" y="100" width="260" height="30" as="geometry" />
        </mxCell>
        <mxCell id="eZifbYopSV_gOOx9Nw91-92" style="rounded=0;orthogonalLoop=1;jettySize=auto;html=1;entryX=0;entryY=0.5;entryDx=0;entryDy=0;" edge="1" parent="1" source="eZifbYopSV_gOOx9Nw91-72" target="eZifbYopSV_gOOx9Nw91-82">
          <mxGeometry relative="1" as="geometry" />
        </mxCell>
        <mxCell id="eZifbYopSV_gOOx9Nw91-93" style="rounded=0;orthogonalLoop=1;jettySize=auto;html=1;entryX=1;entryY=0.5;entryDx=0;entryDy=0;edgeStyle=orthogonalEdgeStyle;" edge="1" parent="1" source="eZifbYopSV_gOOx9Nw91-82" target="eZifbYopSV_gOOx9Nw91-74">
          <mxGeometry relative="1" as="geometry">
            <Array as="points">
              <mxPoint x="380" y="250" />
              <mxPoint x="380" y="315" />
            </Array>
          </mxGeometry>
        </mxCell>
        <mxCell id="eZifbYopSV_gOOx9Nw91-95" style="rounded=0;orthogonalLoop=1;jettySize=auto;html=1;entryX=1;entryY=0.5;entryDx=0;entryDy=0;edgeStyle=orthogonalEdgeStyle;" edge="1" parent="1" source="eZifbYopSV_gOOx9Nw91-82" target="eZifbYopSV_gOOx9Nw91-76">
          <mxGeometry relative="1" as="geometry">
            <Array as="points">
              <mxPoint x="390" y="260" />
              <mxPoint x="390" y="385" />
            </Array>
          </mxGeometry>
        </mxCell>
        <mxCell id="eZifbYopSV_gOOx9Nw91-96" style="rounded=0;orthogonalLoop=1;jettySize=auto;html=1;entryX=1;entryY=0.5;entryDx=0;entryDy=0;edgeStyle=orthogonalEdgeStyle;" edge="1" parent="1" source="eZifbYopSV_gOOx9Nw91-82" target="eZifbYopSV_gOOx9Nw91-78">
          <mxGeometry relative="1" as="geometry">
            <Array as="points">
              <mxPoint x="480" y="280" />
              <mxPoint x="400" y="280" />
              <mxPoint x="400" y="455" />
            </Array>
          </mxGeometry>
        </mxCell>
        <mxCell id="eZifbYopSV_gOOx9Nw91-103" style="edgeStyle=orthogonalEdgeStyle;rounded=0;orthogonalLoop=1;jettySize=auto;html=1;entryX=1;entryY=0.5;entryDx=0;entryDy=0;" edge="1" parent="1" source="eZifbYopSV_gOOx9Nw91-82" target="eZifbYopSV_gOOx9Nw91-100">
          <mxGeometry relative="1" as="geometry">
            <Array as="points">
              <mxPoint x="505" y="290" />
              <mxPoint x="420" y="290" />
              <mxPoint x="420" y="545" />
            </Array>
          </mxGeometry>
        </mxCell>
        <mxCell id="eZifbYopSV_gOOx9Nw91-107" value="Auto Update" style="edgeStyle=orthogonalEdgeStyle;rounded=0;orthogonalLoop=1;jettySize=auto;html=1;entryX=1;entryY=0.5;entryDx=0;entryDy=0;fillColor=#008a00;strokeColor=#33FF33;" edge="1" parent="1" source="eZifbYopSV_gOOx9Nw91-100" target="eZifbYopSV_gOOx9Nw91-82">
          <mxGeometry relative="1" as="geometry">
            <Array as="points">
              <mxPoint x="310" y="570" />
              <mxPoint x="580" y="570" />
              <mxPoint x="580" y="240" />
            </Array>
          </mxGeometry>
        </mxCell>
        <mxCell id="eZifbYopSV_gOOx9Nw91-112" style="edgeStyle=orthogonalEdgeStyle;rounded=0;orthogonalLoop=1;jettySize=auto;html=1;entryX=0;entryY=0.5;entryDx=0;entryDy=0;" edge="1" parent="1" source="eZifbYopSV_gOOx9Nw91-74" target="eZifbYopSV_gOOx9Nw91-83">
          <mxGeometry relative="1" as="geometry">
            <Array as="points">
              <mxPoint x="310" y="350" />
            </Array>
          </mxGeometry>
        </mxCell>
      </root>
    </mxGraphModel>
  </diagram>
</mxfile>
